<svg width="96" height="96" viewBox="0 0 96 96" xmlns="http://www.w3.org/2000/svg" role="img" aria-label="Rebuild icon">
  <defs>
    <linearGradient id="gear-grad" x1="0" x2="1" y1="0" y2="1">
      <stop offset="0%" stop-color="#3a4750"/>
      <stop offset="100%" stop-color="#6b7a86"/>
    </linearGradient>
    <linearGradient id="wrench-grad" x1="0" x2="1" y1="0" y2="1">
      <stop offset="0%" stop-color="#dfe4ea"/>
      <stop offset="100%" stop-color="#b8c2cc"/>
    </linearGradient>
  </defs>
  <rect width="96" height="96" rx="20" fill="#101820"/>
  <path fill="url(#gear-grad)" d="M47.5 20a4 4 0 0 1 1 0l3 7.4a22 22 0 0 1 6.5 2.7l7.2-3.2a4 4 0 0 1 2.8 2.8l-3.1 7a22 22 0 0 1 3.2 6.6l7.8 1.2a4 4 0 0 1 2.5 4l-7.8 1.8a22 22 0 0 1-2.8 6.4l3.6 7a4 4 0 0 1-2.9 5.7l-7.6-2.6a22 22 0 0 1-6 3.8L54 78a4 4 0 0 1-5.9 0l-3.1-7.2a22 22 0 0 1-6.4-2.9l-7 3.8A4 4 0 0 1 26 66.4l3.3-7.2a22 22 0 0 1-3-6.3l-7.6-1.7a4 4 0 0 1-2.6-4.1l7.4-1.4a22 22 0 0 1 3.5-6.6l-3.4-6.8a4 4 0 0 1 2.7-5.7l7.2 3a22 22 0 0 1 6.6-3.5z"/>
  <circle cx="48" cy="48" r="12" fill="#f6ae2d"/>
  <path d="M59 54 74 69a4 4 0 0 1 0 5.7l-2.8 2.8a4 4 0 0 1-5.7 0L50.5 62.3" stroke="url(#wrench-grad)" stroke-width="6" stroke-linecap="round" stroke-linejoin="round" fill="none"/>
  <path d="M43.5 38.5 36 31" stroke="#f6ae2d" stroke-width="4" stroke-linecap="round"/>
</svg>
