<svg width="96" height="96" viewBox="0 0 96 96" xmlns="http://www.w3.org/2000/svg" role="img" aria-label="Win Now icon">
  <defs>
    <linearGradient id="trophy-grad" x1="0" x2="0" y1="0" y2="1">
      <stop offset="0%" stop-color="#ffd87a"/>
      <stop offset="100%" stop-color="#ffb347"/>
    </linearGradient>
    <linearGradient id="base-grad" x1="0" x2="1" y1="0" y2="1">
      <stop offset="0%" stop-color="#8e5a00"/>
      <stop offset="100%" stop-color="#c27c1a"/>
    </linearGradient>
  </defs>
  <rect width="96" height="96" rx="20" fill="#1a2236"/>
  <path d="M30 22h36v6c0 9.4-7.6 17-17 17h-2c-9.4 0-17-7.6-17-17v-6z" fill="url(#trophy-grad)"/>
  <path d="M24 22v6c0 7 4.9 13 11.5 14.6a14 14 0 0 1-13.5-14.6V22h2z" fill="#f6ae2d" opacity=".9"/>
  <path d="M72 22v6c0 7-4.9 13-11.5 14.6a14 14 0 0 0 13.5-14.6V22h-2z" fill="#f6ae2d" opacity=".9"/>
  <path d="M39 45h18v10a9 9 0 0 1-9 9 9 9 0 0 1-9-9V45z" fill="url(#trophy-grad)"/>
  <rect x="32" y="64" width="32" height="8" rx="3" fill="url(#base-grad)"/>
  <rect x="28" y="74" width="40" height="8" rx="4" fill="#f6ae2d" opacity=".7"/>
  <path d="M48 31l2.2 4.5 5 .7-3.7 3.6.9 5.1-4.4-2.3-4.4 2.3.9-5.1-3.7-3.6 5-.7z" fill="#fff5cf"/>
</svg>
