<svg width="80" height="80" viewBox="0 0 80 80" xmlns="http://www.w3.org/2000/svg" role="img" aria-label="Smokey scotch icon">
  <rect width="80" height="80" rx="16" fill="#090b12"/>
  <rect x="18" y="20" width="44" height="40" rx="10" fill="#f4f4f4" opacity=".8"/>
  <path d="M22 40h36v12a10 10 0 0 1-10 10H32a10 10 0 0 1-10-10z" fill="#b87333"/>
  <path d="M50 38c6-6 6-10 0-16 4 6 4 10 0 16z" fill="#ffffff" opacity=".7"/>
  <path d="M44 36c5-5 5-9 0-14 3 5 3 9 0 14z" fill="#ffffff" opacity=".6"/>
  <path d="M38 34c4-4 4-8 0-12 2 4 2 8 0 12z" fill="#ffffff" opacity=".5"/>
  <rect x="24" y="34" width="28" height="10" rx="3" fill="#ffcc80" opacity=".5"/>
  <path d="M30 52h16" stroke="#ffe0b2" stroke-width="2" stroke-linecap="round"/>
  <text x="40" y="72" fill="#fff" font-size="9" font-weight="700" text-anchor="middle">SMOKEY</text>
  <text x="40" y="64" fill="#fff" font-size="9" font-weight="700" text-anchor="middle">SCOTCH</text>
</svg>
