<svg width="80" height="80" viewBox="0 0 80 80" xmlns="http://www.w3.org/2000/svg">
  <rect width="80" height="80" rx="18" fill="#f5e5d6"/>
  <path d="M26 18h28l-3 34a8 8 0 0 1-8 7h-6a8 8 0 0 1-8-7z" fill="#8c5a32"/>
  <rect x="26" y="18" width="28" height="7" rx="3.5" fill="#fff5e9" opacity="0.9"/>
  <path d="M30 36h20v12a6 6 0 0 1-6 6h-8a6 6 0 0 1-6-6V36z" fill="#6d3f1f"/>
  <path d="M34 24c0 3-4 3-4 6s4 3 4 6" stroke="#d9c6b3" stroke-width="2" stroke-linecap="round" fill="none"/>
  <path d="M44 24c0 3-4 3-4 6s4 3 4 6" stroke="#d9c6b3" stroke-width="2" stroke-linecap="round" fill="none"/>
  <text x="40" y="63" text-anchor="middle" font-size="10" font-family="'Inter','Arial',sans-serif" font-weight="600" fill="#3f2412">
    SMOKEY
  </text>
  <text x="40" y="72" text-anchor="middle" font-size="10" font-family="'Inter','Arial',sans-serif" fill="#3f2412">
    SCOTCH
  </text>
</svg>
