<?xml version="1.0" encoding="UTF-8" standalone="no"?>
<svg xmlns="http://www.w3.org/2000/svg" width="1024" height="1024" viewBox="0 0 1024 1024" fill="black">
  <path d="M 514.00 1012.50 L 420.00 973.50 L 323.00 923.50 L 232.00 864.50 L 171.50 808.00 L 134.50 753.00 L 110.50 684.00 L 103.50 626.00 L 103.50 533.00 L 49.00 543.50 L 40.50 540.00 L 38.50 531.00 L 59.50 463.00 L 59.50 453.00 L 12.50 385.00 L 21.00 377.50 L 84.50 364.00 L 80.50 324.00 L 103.50 315.00 L 103.50 182.00 L 111.00 175.50 L 259.00 123.50 L 375.00 97.50 L 423.00 60.50 L 467.00 39.50 L 524.00 24.50 L 594.00 21.50 L 638.00 33.50 L 668.00 50.50 L 687.50 74.00 L 699.00 108.50 L 780.00 128.50 L 917.00 178.50 L 919.50 316.00 L 932.00 317.50 L 942.50 326.00 L 937.50 364.00 L 1005.00 378.50 L 1009.50 389.00 L 962.50 455.00 L 983.50 529.00 L 982.50 540.00 L 974.00 543.50 L 919.50 533.00 L 919.50 628.00 L 911.50 689.00 L 893.50 742.00 L 863.50 793.00 L 821.00 839.50 L 756.00 889.50 L 631.00 960.50 L 514.00 1012.50 Z" />
</svg>
